Coordinates
version=1
nRows=17
nColumns=24
inDegrees=yes

Units are S.I. units (second, meters, Newtons, ...)
Angles are in degrees.

endheader
time	pelvis_tilt	pelvis_list	pelvis_rotation	pelvis_tx	pelvis_ty	pelvis_tz	hip_flexion_r	hip_adduction_r	hip_rotation_r	knee_angle_r	ankle_angle_r	subtalar_angle_r	mtp_angle_r	hip_flexion_l	hip_adduction_l	hip_rotation_l	knee_angle_l	ankle_angle_l	subtalar_angle_l	mtp_angle_l	lumbar_extension	lumbar_bending	lumbar_rotation
      0.55000000	      4.25643360	      1.93755617	      7.71964407	     -0.91581331	      1.02014194	      0.29850115	     17.70256692	     -1.70692994	    -11.87338377	      3.39981957	      4.24433935	      0.04050937	      4.72057956	    -17.15139644	      5.46966101	     11.72111059	    -10.30504783	     14.81551159	     -7.73922987	     -3.36831044	     -7.86132156	     -4.00487819	     -5.17012970
      0.55416667	      4.30331606	      1.76718981	      7.84366227	     -0.91013500	      1.01979883	      0.29837479	     17.70212762	     -1.49416403	    -11.81516736	      2.74003227	      4.33914898	     -0.06180177	      4.72834962	    -17.32092613	      5.24446926	     11.72760068	    -10.71516049	     14.86208414	     -7.73674079	     -3.37242545	     -7.86067458	     -3.78228610	     -5.17393335
      0.55833333	      4.36592104	      1.59096755	      7.95544027	     -0.90436775	      1.01948711	      0.29825540	     17.67979378	     -1.27048712	    -11.75400010	      2.06146660	      4.38863103	     -0.16394900	      4.76562109	    -17.48862868	      5.00455062	     11.59540417	    -11.16235878	     15.00724617	     -7.44993561	     -3.38550088	     -7.85026961	     -3.52117316	     -5.33503333
      0.56250000	      4.40936316	      1.43471841	      8.08562432	     -0.89860878	      1.01917751	      0.29811649	     17.66669806	     -1.07335332	    -11.64226008	      1.37911482	      4.41775516	     -0.38319733	      4.78073110	    -17.63742144	      4.79541728	     11.62123472	    -11.61463728	     15.01325815	     -7.46211696	     -3.38692797	     -7.82141527	     -3.30333189	     -5.36222471
      0.56666667	      4.44634804	      1.25539334	      8.18647905	     -0.89270257	      1.01886974	      0.29806985	     17.62329651	     -0.82803344	    -11.39067324	      0.77303502	      4.25469463	     -0.86270484	      4.84418345	    -17.77099336	      4.55516222	     11.50395928	    -12.08118560	     15.07859165	     -7.24530544	     -3.38064736	     -7.77338844	     -3.06562534	     -5.52874188
      0.57083333	      4.50947857	      1.08697085	      8.29471700	     -0.88678976	      1.01862428	      0.29800915	     17.54651995	     -0.59180774	    -11.15596239	      0.16595638	      4.09713827	     -1.32198020	      4.92094858	    -17.92858210	      4.32573272	     11.45208036	    -12.56086364	     15.08247713	     -7.13448988	     -3.36021812	     -7.74890099	     -2.83654537	     -5.60225221
      0.57500000	      4.05846312	      0.80018458	      8.03630688	     -0.87987632	      1.01761107	      0.29806141	     18.05968336	     -0.22071560	    -10.56348861	     -0.51625259	      3.91165729	     -1.79611852	      5.02944154	    -17.65107255	      4.17922273	     11.07721597	    -12.89701909	     14.98221860	     -7.13130794	     -3.32102876	     -6.94810887	     -2.52219060	     -5.31238381
      0.57916667	      4.09739738	      0.65387296	      8.18400166	     -0.87403171	      1.01741743	      0.29801019	     17.99047584	     -0.01394324	    -10.31695049	     -1.07944642	      3.59487778	     -2.38053054	      5.10276439	    -17.74045912	      3.96404305	     11.06965273	    -13.44793573	     14.92771828	     -7.02176516	     -3.27552159	     -6.90897595	     -2.32392295	     -5.48441944
      0.58333333	      4.11204910	      0.51137655	      8.31081795	     -0.86809448	      1.01720766	      0.29801779	     17.93168205	      0.19956692	    -10.00265807	     -1.60556800	      3.21432075	     -3.06036557	      5.19356748	    -17.79963242	      3.75733923	     11.02635900	    -14.01110971	     14.83441990	     -6.90228514	     -3.21044845	     -6.82509910	     -2.14656090	     -5.60722762
      0.58750000	      4.11355856	      0.36764301	      8.42393057	     -0.86208501	      1.01700114	      0.29808854	     17.87463091	      0.42339954	     -9.66140443	     -2.09725186	      2.76411225	     -3.77543469	      5.29603321	    -17.84055059	      3.54834931	     10.95846655	    -14.58080687	     14.71424584	     -6.76418277	     -3.12373432	     -6.71439902	     -1.97155651	     -5.71022715
      0.59166667	      4.17806876	      0.23181986	      8.51492258	     -0.85604585	      1.01689865	      0.29823860	     17.72974985	      0.66584440	     -9.25678798	     -2.53338587	      2.24808053	     -4.60775695	      5.45227168	    -17.93628097	      3.33569606	     10.81924054	    -15.17835398	     14.59026755	     -6.59477949	     -2.97390937	     -6.67953514	     -1.82427053	     -5.79482178
      0.59583333	      4.16420641	      0.08914743	      8.60504546	     -0.84992116	      1.01670827	      0.29840459	     17.66762166	      0.90426066	     -8.86800202	     -2.96217960	      1.67722567	     -5.42061049	      5.61933871	    -17.94246676	      3.12662088	     10.70396242	    -15.78531749	     14.41560043	     -6.42821891	     -2.79445555	     -6.52923736	     -1.66726596	     -5.87767332
      0.60000000	      4.17608102	     -0.06827438	      8.68980813	     -0.84373532	      1.01659797	      0.29858880	     17.55968968	      1.16576109	     -8.49174750	     -3.34063311	      1.02352496	     -6.18962348	      5.76526318	    -17.97710138	      2.89599158	     10.59361008	    -16.38048715	     14.17168863	     -6.24517467	     -2.61750106	     -6.40936290	     -1.47027268	     -5.94639129
      0.60416667	      3.55621461	     -0.79284976	      8.46850702	     -0.83605318	      1.01481183	      0.29874769	     18.15254682	      1.99675463	     -7.90709950	     -3.68879357	      0.32313418	     -7.16054295	      6.04469713	    -17.32173793	      2.22513079	      9.56899022	    -17.09890586	     14.39200293	     -5.38875535	     -2.18637316	     -5.22543166	     -0.71352685	     -5.70046330
      0.60833333	      3.62301832	     -0.88291905	      8.58682987	     -0.83005732	      1.01487233	      0.29898811	     17.98469102	      2.19030176	     -7.53333117	     -4.05364843	     -0.38806452	     -8.01537464	      6.50057971	    -17.36033102	      2.03448263	      9.46941151	    -17.77135537	     14.06432833	     -5.17005078	     -1.44614625	     -5.21122946	     -0.61146855	     -5.80720489
      0.61250000	      3.60140930	     -0.98164041	      8.72324939	     -0.82397198	      1.01483697	      0.29922206	     17.90647190	      2.37135939	     -7.23012353	     -4.41274198	     -1.05777442	     -8.78584009	      6.66107471	    -17.26438173	      1.84290693	      9.37136777	    -18.53394850	     13.76091595	     -5.02937673	     -1.14664008	     -5.04366943	     -0.53864291	     -5.97923213
      0.61666667	      3.67633789	     -1.09728942	      8.81316135	     -0.81779063	      1.01496654	      0.29954206	     17.70403792	      2.60425938	     -6.86980812	     -4.72496424	     -1.78327452	     -9.58391183	      6.83632283	    -17.28279262	      1.61470571	      9.15511449	    -19.25585248	     13.37714334	     -4.75292200	     -0.78753875	     -4.99541781	     -0.42053248	     -6.03510969
